<svg width="346" height="186" viewBox="0 0 346 186" fill="none" xmlns="http://www.w3.org/2000/svg">
<path d="M308.07 83.998C311.961 83.998 313.906 85.8045 313.906 89.4173C313.906 91.2237 313.489 93.0301 312.655 94.8365C311.96 96.6429 311.127 98.3799 310.154 100.047C309.181 101.715 308.278 103.243 307.444 104.633C306.75 105.883 306.402 106.926 306.402 107.759C306.402 109.149 307.514 109.844 309.737 109.844C311.266 109.844 312.794 109.496 314.323 108.801C315.851 107.968 317.171 107.065 318.283 106.092C319.672 104.98 320.993 103.73 322.243 102.34H323.702C322.313 104.008 320.854 105.467 319.325 106.717C317.936 107.829 316.407 108.871 314.74 109.844C313.072 110.677 311.335 111.094 309.529 111.094C307.167 111.094 305.43 110.399 304.318 109.01C300.705 113.595 296.745 117.625 292.437 121.099C288.13 124.434 284.239 126.101 280.765 126.101C277.986 126.101 275.971 124.99 274.721 122.766C273.331 120.543 272.636 118.25 272.636 115.888C272.636 111.997 273.887 108.176 276.388 104.424C278.75 100.534 281.668 97.0598 285.142 94.0028C288.755 90.9458 292.646 88.5141 296.814 86.7077C300.983 84.9012 304.735 83.998 308.07 83.998ZM281.39 124.851C282.78 124.851 284.378 124.434 286.184 123.6C288.13 122.628 290.075 121.377 292.02 119.848C293.966 118.32 295.911 116.583 297.857 114.638C299.941 112.553 301.817 110.399 303.484 108.176C302.65 106.787 302.234 105.189 302.234 103.382C302.234 101.159 302.789 99.2136 303.901 97.5461C305.013 95.7397 306.472 94.8365 308.278 94.8365C309.529 94.8365 310.293 95.4618 310.571 96.7124C311.96 93.6554 312.655 91.2237 312.655 89.4173C312.655 88.3056 312.377 87.333 311.822 86.4992C311.266 85.6655 310.293 85.2486 308.903 85.2486C306.402 85.2486 303.276 86.6382 299.524 89.4173C295.911 92.0574 292.437 95.3229 289.102 99.2136C285.767 102.965 282.919 106.926 280.557 111.094C278.194 115.124 277.013 118.459 277.013 121.099C277.013 123.6 278.472 124.851 281.39 124.851Z" fill="black"/>
<path d="M264.605 11.8802C258.769 11.8802 253.697 13.6866 249.39 17.2995C245.221 20.9123 242.303 25.3589 240.636 30.6391C239.107 35.7805 239.107 41.1997 240.636 46.8969C242.164 52.594 245.847 57.4574 251.683 61.4871C256.407 55.5121 261.548 49.4675 267.107 43.3535C272.804 37.2395 278.64 31.6813 284.615 26.6789C290.729 21.6766 296.982 17.6469 303.374 14.5898C309.766 11.3939 316.227 9.7959 322.758 9.7959C329.984 9.7959 335.472 11.3244 339.224 14.3814C342.976 17.4384 345.13 21.2597 345.686 25.8452C346.38 30.2918 345.477 35.1552 342.976 40.4355C340.614 45.7158 336.862 50.6487 331.721 55.2342C326.718 59.6807 320.326 63.4325 312.545 66.4895C304.902 69.5465 296.148 71.075 286.282 71.075C284.754 71.075 283.295 71.075 281.905 71.075C280.655 71.075 279.335 71.0056 277.945 70.8666L266.481 87.3328C265.092 89.2781 263.216 91.9183 260.854 95.2532C258.63 98.4492 256.407 101.784 254.184 105.258C251.961 108.732 250.015 112.067 248.348 115.263C246.68 118.32 245.847 120.612 245.847 122.141C245.847 123.947 246.889 124.851 248.973 124.851C252.03 124.851 255.226 123.669 258.561 121.307C262.035 118.945 265.161 116.374 267.94 113.595C271.275 110.26 274.541 106.509 277.737 102.34H279.196C276 106.786 272.595 110.747 268.982 114.221C265.925 117.278 262.521 120.057 258.769 122.558C255.018 124.92 251.335 126.101 247.722 126.101C243.554 126.101 241.469 124.086 241.469 120.057C241.469 118.806 241.747 117.278 242.303 115.471C242.998 113.665 243.901 111.719 245.013 109.635C243.484 111.441 241.747 113.317 239.802 115.263C237.857 117.208 235.772 119.014 233.549 120.682C231.326 122.21 229.033 123.531 226.671 124.642C224.308 125.615 221.946 126.101 219.584 126.101C215.415 126.101 213.331 124.086 213.331 120.057C213.331 118.25 214.026 115.888 215.415 112.97C216.805 110.052 218.472 106.995 220.418 103.799C222.363 100.603 224.447 97.4765 226.671 94.4195C229.033 91.2235 231.048 88.5139 232.715 86.2906C235.078 83.0946 237.787 79.4818 240.844 75.4521C244.04 71.2835 247.444 66.8369 251.057 62.1124C245.221 57.9438 241.469 52.9414 239.802 47.1053C238.273 41.2692 238.343 35.711 240.01 30.4307C241.678 25.0115 244.665 20.426 248.973 16.6742C253.42 12.9224 258.7 11.0465 264.814 11.0465C265.092 11.0465 265.231 11.1854 265.231 11.4634C265.231 11.7413 265.022 11.8802 264.605 11.8802ZM321.716 11.0465C315.463 11.0465 309.279 12.6445 303.165 15.8404C297.19 19.0364 291.354 23.2051 285.657 28.3464C279.96 33.3488 274.471 38.9764 269.191 45.2294C264.05 51.4824 259.256 57.5964 254.809 63.5715C260.089 66.4895 266.342 68.4349 273.568 69.4076C277.32 64.6831 281.211 59.9586 285.24 55.2342C289.409 50.5097 293.508 46.3411 297.538 42.7282C301.706 39.1154 305.806 36.1973 309.835 33.9741C314.004 31.6118 318.034 30.4307 321.924 30.4307C326.51 30.4307 329.567 31.8897 331.095 34.8078C332.763 37.7258 332.902 41.1997 331.512 45.2294C330.262 49.1202 327.552 53.1499 323.383 57.3185C319.354 61.4872 314.073 64.8221 307.543 67.3232C314.351 65.3779 320.187 62.5988 325.051 58.986C330.053 55.3731 334.083 51.4824 337.14 47.3137C340.197 43.1451 342.212 38.907 343.184 34.5994C344.157 30.2918 344.018 26.401 342.768 22.9271C341.656 19.4533 339.363 16.6047 335.889 14.3814C332.415 12.1581 327.691 11.0465 321.716 11.0465ZM272.943 70.2413C269.191 69.5465 265.717 68.7823 262.521 67.9486C259.464 66.9759 256.754 65.7253 254.392 64.1968C251.196 68.6433 248.209 72.8814 245.43 76.9111C242.789 80.9408 240.427 84.4147 238.343 87.3328C236.953 89.2781 235.078 91.9183 232.715 95.2532C230.492 98.4492 228.269 101.784 226.045 105.258C223.822 108.732 221.877 112.067 220.209 115.263C218.542 118.32 217.708 120.612 217.708 122.141C217.708 123.947 218.75 124.851 220.835 124.851C223.614 124.851 226.532 123.878 229.589 121.933C232.646 119.848 235.564 117.486 238.343 114.846C241.122 112.206 243.554 109.635 245.638 107.134C247.722 104.494 249.181 102.548 250.015 101.298C253.906 95.6006 257.588 90.4593 261.062 85.8737C264.675 81.1493 268.635 75.9385 272.943 70.2413ZM320.882 31.6813C317.547 31.6813 314.073 32.7929 310.461 35.0162C306.987 37.2395 303.443 40.1576 299.831 43.7704C296.218 47.3832 292.605 51.4824 288.992 56.0679C285.379 60.6534 281.905 65.3084 278.57 70.0329C279.821 70.1718 281.072 70.2413 282.322 70.2413C283.573 70.2413 284.893 70.2413 286.282 70.2413C293.23 70.2413 299.414 69.3381 304.833 67.5317C310.252 65.5863 314.838 63.1546 318.589 60.2365C322.341 57.3185 325.259 54.2615 327.344 51.0655C329.428 47.7306 330.54 44.6041 330.679 41.6861C330.956 38.768 330.262 36.4058 328.594 34.5994C327.066 32.654 324.495 31.6813 320.882 31.6813Z" fill="black"/>
<path d="M217.613 86.7077C217.613 88.3751 216.571 90.3205 214.487 92.5438C212.403 94.6281 209.832 96.6429 206.775 98.5883C203.857 100.395 200.661 101.993 197.187 103.382C193.713 104.633 190.656 105.328 188.016 105.467C186.487 107.829 185.237 110.191 184.264 112.553C183.291 114.916 182.805 117.139 182.805 119.223C182.805 120.891 183.291 122.28 184.264 123.392C185.376 124.364 187.113 124.851 189.475 124.851C193.227 124.851 196.979 123.67 200.73 121.307C204.621 118.945 208.095 116.375 211.152 113.595C214.765 110.261 218.169 106.509 221.365 102.34H222.824C219.35 106.787 215.737 110.747 211.986 114.221C208.79 117.278 205.177 120.057 201.147 122.558C197.117 124.92 193.018 126.101 188.85 126.101C185.515 126.101 182.875 124.99 180.929 122.766C178.845 120.543 177.803 117.695 177.803 114.221C177.803 109.913 179.192 105.953 181.971 102.34C184.612 98.5883 187.807 95.3923 191.559 92.7522C195.311 89.9731 199.202 87.8193 203.232 86.2908C207.261 84.7623 210.596 83.998 213.236 83.998C216.154 83.998 217.613 84.9012 217.613 86.7077ZM213.862 85.0402C212.194 85.0402 210.249 85.596 208.025 86.7077C205.802 87.8193 203.509 89.2783 201.147 91.0847C198.924 92.7522 196.701 94.7671 194.477 97.1293C192.254 99.4915 190.309 101.923 188.641 104.424C191.142 104.285 193.922 103.591 196.979 102.34C200.036 100.951 202.954 99.3526 205.733 97.5461C208.512 95.6008 210.805 93.6554 212.611 91.71C214.556 89.7647 215.529 88.0277 215.529 86.4992C215.529 85.5266 214.973 85.0402 213.862 85.0402Z" fill="black"/>
<path d="M85.2489 159.242C84.2762 162.021 82.8866 164.662 81.0802 167.163C79.2738 169.803 77.0505 172.096 74.4104 174.041C71.7702 175.986 68.7132 177.515 65.2394 178.627C61.7655 179.877 57.9442 180.503 53.7756 180.503C49.0511 180.503 44.5351 179.738 40.2275 178.21C36.0588 176.82 32.307 174.597 28.9721 171.54C25.7761 168.622 23.2055 164.94 21.2601 160.493C19.3147 156.046 18.3421 150.905 18.3421 145.069C18.3421 139.65 19.1063 134.3 20.6348 129.02C16.7441 129.02 13.4786 128.603 10.8385 127.769C8.19834 127.074 6.04454 126.102 4.37708 124.851C2.84858 123.6 1.73694 122.211 1.04216 120.682C0.347387 119.154 0 117.625 0 116.097C0 113.04 1.04216 110.469 3.12649 108.385C5.34977 106.301 7.64252 105.258 10.0048 105.258C11.2554 105.258 12.2975 105.606 13.1312 106.301C13.965 106.995 14.3818 107.899 14.3818 109.01C14.3818 110.539 13.826 111.789 12.7144 112.762C11.7417 113.735 10.6301 114.638 9.37946 115.472C8.12887 116.305 6.94775 117.139 5.83611 117.973C4.86342 118.806 4.37708 119.849 4.37708 121.099C4.37708 122.906 5.76663 124.504 8.54573 125.893C11.4638 127.144 15.563 127.769 20.8432 127.769H21.0517C23.136 121.099 26.332 114.985 30.6396 109.427C35.0861 103.73 40.4359 98.4496 46.6889 93.5862C42.7981 92.0577 39.5327 89.5565 36.8925 86.0826C34.2524 82.4698 32.9323 77.7453 32.9323 71.9092C32.9323 65.1004 34.5998 58.9864 37.9347 53.5671C41.4086 48.0089 45.9941 43.0066 51.6912 38.56C57.3884 34.1134 63.9193 30.2227 71.2839 26.8878C78.6485 23.5529 86.291 20.7043 94.2115 18.3421C102.271 15.8409 110.261 13.7565 118.181 12.0891C126.241 10.4216 133.675 9.10154 140.483 8.12885C147.292 7.15617 153.267 6.4614 158.409 6.04453C163.689 5.62766 167.51 5.41924 169.872 5.41924C170.15 5.41924 170.289 5.62766 170.289 6.04453C170.289 6.4614 170.15 6.66984 169.872 6.66984C163.064 6.66984 156.811 8.47625 151.114 12.0891C145.416 15.563 139.997 20.2179 134.856 26.054C129.714 31.8902 124.712 38.4905 119.849 45.8551C114.985 53.2197 109.983 60.7233 104.842 68.3658C106.787 67.949 108.732 67.5321 110.678 67.1152C112.623 66.6984 114.568 66.351 116.514 66.0731C119.71 65.5173 122.906 64.9614 126.102 64.4056C129.298 63.8498 132.494 63.2245 135.69 62.5297C141.942 54.6093 148.821 46.8973 156.324 39.3937C163.967 31.8902 171.54 25.2203 179.043 19.3842C186.686 13.5481 193.981 8.89311 200.929 5.41924C207.877 1.80641 213.782 0 218.646 0C221.981 0 224.412 0.903202 225.941 2.70962C227.608 4.51603 228.442 6.80879 228.442 9.58789C228.442 14.5903 226.288 19.5927 221.981 24.595C217.673 29.5974 211.767 34.3219 204.264 38.7684C196.899 43.215 188.145 47.3836 178.001 51.2744C167.997 55.0262 157.297 58.3611 145.903 61.2791C141.734 66.5594 137.913 71.8397 134.439 77.12C130.965 82.4003 127.908 87.4027 125.268 92.1271C122.767 96.8516 120.752 101.298 119.223 105.467C117.834 109.497 117.139 113.04 117.139 116.097C117.139 119.293 117.834 121.794 119.223 123.6C120.613 125.268 122.35 126.449 124.434 127.144C125.268 122.002 126.935 116.792 129.437 111.511C132.077 106.231 135.134 101.437 138.608 97.1295C142.22 92.8219 146.181 89.2786 150.488 86.4995C154.796 83.7204 159.103 82.3308 163.411 82.3308C167.024 82.3308 169.595 83.234 171.123 85.0404C172.79 86.7079 173.624 89.0701 173.624 92.1271C173.624 95.1841 172.304 98.8665 169.664 103.174C167.163 107.343 163.758 111.372 159.451 115.263C155.282 119.015 150.488 122.28 145.069 125.059C139.65 127.7 134.092 129.02 128.394 129.02H127.561C127.005 131.382 126.727 134.092 126.727 137.149C126.727 142.012 128.047 145.903 130.687 148.821C133.466 151.878 137.287 153.406 142.151 153.406C146.459 153.406 150.558 152.573 154.448 150.905C158.339 149.377 161.952 147.223 165.287 144.444C165.704 144.166 165.982 144.166 166.121 144.444C166.399 144.722 166.399 144.999 166.121 145.277C162.508 148.057 158.687 150.28 154.657 151.947C150.766 153.754 146.597 154.657 142.151 154.657C136.871 154.657 132.494 152.85 129.02 149.238C125.546 145.625 123.809 140.483 123.809 133.814C123.809 132.841 123.809 131.938 123.809 131.104C123.948 130.409 124.087 129.575 124.226 128.603C121.03 127.908 118.181 126.241 115.68 123.6C113.179 120.96 111.928 117 111.928 111.72C111.928 105.189 114.013 97.8243 118.181 89.6259C122.35 81.2886 127.769 72.7429 134.439 63.9888C131.521 64.6835 128.533 65.3088 125.476 65.8647C122.558 66.4205 119.64 66.9068 116.722 67.3237L103.799 69.8249C98.797 77.1895 93.5167 84.4151 87.9585 91.5018C82.4003 98.4496 76.3558 104.703 69.8249 110.261C63.294 115.819 56.0683 120.335 48.1479 123.809C40.2275 127.144 31.4733 128.881 21.8854 129.02C20.3569 134.3 19.5926 139.65 19.5926 145.069C19.5926 150.766 20.4959 155.769 22.3023 160.076C24.2476 164.384 26.7488 167.927 29.8058 170.706C33.0018 173.624 36.6146 175.778 40.6443 177.168C44.813 178.557 49.1901 179.252 53.7756 179.252C57.8053 179.252 61.4181 178.696 64.6141 177.584C67.949 176.473 70.867 174.944 73.3682 172.999C75.8694 171.193 78.0232 169.039 79.8296 166.538C81.636 164.175 83.0256 161.674 83.9983 159.034L85.2489 159.242ZM94.4199 70.867C99.5612 64.0582 104.633 57.3189 109.635 50.6491C114.638 43.8403 119.71 37.5873 124.851 31.8902C130.131 26.054 135.481 21.0517 140.9 16.883C146.32 12.5754 151.947 9.44894 157.783 7.50357C151.808 8.05939 144.652 8.96259 136.315 10.2132C127.978 11.4638 119.223 13.2007 110.052 15.424C100.881 17.5083 91.7798 20.2179 82.7477 23.5529C73.7156 26.7488 65.5867 30.709 58.3611 35.4335C51.1354 40.019 45.2993 45.3688 40.8528 51.4828C36.4062 57.4579 34.1829 64.2667 34.1829 71.9092C34.1829 77.6063 35.503 82.1224 38.1431 85.4573C40.7833 88.6533 44.0487 91.0155 47.9395 92.544C60.4454 83.234 75.9389 76.0084 94.4199 70.867ZM218.646 1.25059C214.616 1.25059 209.683 2.91804 203.847 6.25296C198.15 9.44892 192.105 13.7565 185.713 19.1758C179.321 24.595 172.791 30.848 166.121 37.9347C159.451 44.8825 153.198 52.1081 147.362 59.6117C158.478 56.6936 168.9 53.3587 178.627 49.6069C188.353 45.8551 196.76 41.8254 203.847 37.5178C211.073 33.0713 216.77 28.4858 220.938 23.7613C225.107 19.0368 227.191 14.3124 227.191 9.58789C227.191 4.02969 224.343 1.25059 218.646 1.25059ZM22.3023 127.769C29.389 127.63 36.0588 125.963 42.3118 122.767C48.5648 119.571 54.6093 115.472 60.4454 110.469C66.2815 105.328 71.9092 99.4917 77.3284 92.9609C82.7477 86.291 88.0974 79.4822 93.3777 72.5345C75.7305 77.3979 61.0012 84.2067 49.1901 92.9609C49.8848 93.2388 50.9965 93.5167 52.525 93.7946C54.1924 94.0725 55.7209 94.2115 57.1105 94.2115C61.5571 94.2115 65.5867 93.3082 69.1996 91.5018C69.4775 91.2239 69.6859 91.2239 69.8249 91.5018C70.1028 91.7797 70.1028 92.0577 69.8249 92.3356C68.0185 93.4472 66.0036 94.2809 63.7803 94.8368C61.557 95.2536 59.3338 95.4621 57.1105 95.4621C53.7756 95.4621 50.7186 94.9757 47.9395 94.003C35.2946 103.452 26.7488 114.707 22.3023 127.769ZM164.245 83.7898C160.771 83.7898 157.158 85.1794 153.406 87.9585C149.654 90.5986 146.042 94.0725 142.568 98.3801C139.233 102.549 136.245 107.273 133.605 112.554C131.104 117.695 129.228 122.767 127.978 127.769H129.437C134.439 127.769 139.441 126.518 144.444 124.017C149.585 121.377 154.24 118.251 158.409 114.638C162.577 110.886 165.912 106.995 168.413 102.966C171.054 98.797 172.374 95.1841 172.374 92.1271C172.374 86.5689 169.664 83.7898 164.245 83.7898Z" fill="black"/>
<path d="M248.825 181.277C248.372 181.277 247.985 181.118 247.661 180.8C247.338 180.482 247.179 180.094 247.184 179.636C247.179 179.189 247.338 178.806 247.661 178.488C247.985 178.17 248.372 178.011 248.825 178.011C249.262 178.011 249.643 178.17 249.966 178.488C250.294 178.806 250.46 179.189 250.465 179.636C250.46 179.94 250.381 180.216 250.227 180.464C250.078 180.713 249.879 180.912 249.63 181.061C249.387 181.205 249.118 181.277 248.825 181.277Z" fill="black"/>
<path d="M243.574 181.277C243.121 181.277 242.734 181.118 242.41 180.8C242.087 180.482 241.928 180.094 241.933 179.636C241.928 179.189 242.087 178.806 242.41 178.488C242.734 178.17 243.121 178.011 243.574 178.011C244.011 178.011 244.392 178.17 244.715 178.488C245.043 178.806 245.209 179.189 245.214 179.636C245.209 179.94 245.13 180.216 244.976 180.464C244.827 180.713 244.628 180.912 244.379 181.061C244.136 181.205 243.867 181.277 243.574 181.277Z" fill="black"/>
<path d="M238.323 181.277C237.87 181.277 237.483 181.118 237.16 180.8C236.836 180.482 236.677 180.094 236.682 179.636C236.677 179.189 236.836 178.806 237.16 178.488C237.483 178.17 237.87 178.011 238.323 178.011C238.76 178.011 239.141 178.17 239.464 178.488C239.792 178.806 239.959 179.189 239.963 179.636C239.959 179.94 239.879 180.216 239.725 180.464C239.576 180.713 239.377 180.912 239.128 181.061C238.885 181.205 238.616 181.277 238.323 181.277Z" fill="black"/>
<path d="M228.523 181.314C227.623 181.314 226.818 181.083 226.107 180.62C225.396 180.158 224.834 179.487 224.422 178.607C224.009 177.727 223.803 176.658 223.803 175.4C223.803 174.127 224.012 173.054 224.429 172.179C224.852 171.299 225.421 170.635 226.137 170.187C226.853 169.735 227.651 169.509 228.531 169.509C229.202 169.509 229.754 169.623 230.186 169.852C230.619 170.076 230.962 170.347 231.215 170.665C231.469 170.978 231.665 171.274 231.805 171.552H231.916V165.84H234.623V181.113H231.969V179.308H231.805C231.665 179.586 231.464 179.882 231.2 180.195C230.937 180.504 230.589 180.767 230.156 180.986C229.724 181.205 229.18 181.314 228.523 181.314ZM229.276 179.099C229.848 179.099 230.335 178.945 230.738 178.637C231.141 178.323 231.447 177.888 231.655 177.332C231.864 176.775 231.969 176.126 231.969 175.385C231.969 174.645 231.864 174.001 231.655 173.454C231.452 172.907 231.148 172.482 230.746 172.179C230.348 171.875 229.858 171.724 229.276 171.724C228.675 171.724 228.173 171.88 227.77 172.194C227.367 172.507 227.064 172.939 226.86 173.491C226.656 174.043 226.555 174.674 226.555 175.385C226.555 176.101 226.656 176.74 226.86 177.302C227.069 177.859 227.375 178.299 227.778 178.622C228.185 178.94 228.685 179.099 229.276 179.099Z" fill="black"/>
<path d="M215.015 174.401V181.113H212.315V169.658H214.896V171.604H215.03C215.293 170.963 215.714 170.453 216.29 170.076C216.872 169.698 217.59 169.509 218.445 169.509C219.236 169.509 219.924 169.678 220.511 170.016C221.103 170.354 221.56 170.844 221.883 171.485C222.211 172.126 222.373 172.904 222.368 173.819V181.113H219.668V174.237C219.668 173.471 219.47 172.872 219.072 172.44C218.679 172.007 218.135 171.791 217.439 171.791C216.966 171.791 216.546 171.895 216.178 172.104C215.815 172.308 215.53 172.604 215.321 172.991C215.117 173.379 215.015 173.849 215.015 174.401Z" fill="black"/>
<path d="M205.779 181.336C204.63 181.336 203.638 181.098 202.803 180.62C201.973 180.138 201.334 179.457 200.886 178.577C200.439 177.692 200.215 176.651 200.215 175.452C200.215 174.274 200.439 173.24 200.886 172.35C201.339 171.455 201.97 170.759 202.781 170.262C203.591 169.76 204.543 169.509 205.637 169.509C206.343 169.509 207.009 169.623 207.635 169.852C208.267 170.076 208.824 170.424 209.306 170.896C209.793 171.368 210.176 171.97 210.454 172.701C210.733 173.426 210.872 174.292 210.872 175.296V176.124H201.483V174.304H208.284C208.279 173.787 208.167 173.327 207.949 172.924C207.73 172.517 207.424 172.196 207.031 171.962C206.644 171.729 206.191 171.612 205.674 171.612C205.122 171.612 204.638 171.746 204.22 172.015C203.802 172.278 203.477 172.626 203.243 173.059C203.014 173.486 202.898 173.956 202.893 174.468V176.056C202.893 176.723 203.014 177.294 203.258 177.772C203.502 178.244 203.842 178.607 204.28 178.86C204.717 179.109 205.229 179.233 205.816 179.233C206.209 179.233 206.564 179.179 206.882 179.069C207.2 178.955 207.476 178.788 207.71 178.57C207.944 178.351 208.12 178.08 208.239 177.757L210.76 178.04C210.601 178.706 210.298 179.288 209.85 179.785C209.408 180.277 208.841 180.66 208.15 180.934C207.459 181.202 206.668 181.336 205.779 181.336Z" fill="black"/>
<path d="M196.072 181.113V169.658H198.771V181.113H196.072ZM197.429 168.032C197.001 168.032 196.633 167.891 196.325 167.607C196.017 167.319 195.863 166.973 195.863 166.571C195.863 166.163 196.017 165.817 196.325 165.534C196.633 165.246 197.001 165.102 197.429 165.102C197.861 165.102 198.229 165.246 198.533 165.534C198.841 165.817 198.995 166.163 198.995 166.571C198.995 166.973 198.841 167.319 198.533 167.607C198.229 167.891 197.861 168.032 197.429 168.032Z" fill="black"/>
<path d="M188.585 181.113V169.658H191.203V171.567H191.322C191.531 170.906 191.889 170.396 192.396 170.038C192.908 169.675 193.492 169.494 194.149 169.494C194.298 169.494 194.464 169.501 194.648 169.516C194.837 169.526 194.994 169.544 195.118 169.569V172.052C195.004 172.012 194.822 171.977 194.574 171.947C194.33 171.913 194.094 171.895 193.865 171.895C193.373 171.895 192.931 172.002 192.538 172.216C192.15 172.425 191.844 172.716 191.621 173.088C191.397 173.461 191.285 173.891 191.285 174.379V181.113H188.585Z" fill="black"/>
<path d="M177.404 181.113V165.84H187.188V168.159H180.171V172.305H186.517V174.625H180.171V181.113H177.404Z" fill="black"/>
<path d="M165.43 181.113V169.658H168.047V171.567H168.167C168.375 170.906 168.733 170.396 169.24 170.038C169.752 169.675 170.337 169.494 170.993 169.494C171.142 169.494 171.309 169.501 171.493 169.516C171.681 169.526 171.838 169.544 171.962 169.569V172.052C171.848 172.012 171.667 171.977 171.418 171.947C171.174 171.913 170.938 171.895 170.71 171.895C170.217 171.895 169.775 172.002 169.382 172.216C168.994 172.425 168.689 172.716 168.465 173.088C168.241 173.461 168.129 173.891 168.129 174.379V181.113H165.43Z" fill="black"/>
<path d="M157.507 181.344C156.781 181.344 156.127 181.214 155.546 180.956C154.969 180.692 154.512 180.305 154.173 179.793C153.84 179.28 153.674 178.649 153.674 177.898C153.674 177.252 153.793 176.718 154.032 176.295C154.27 175.872 154.596 175.534 155.009 175.281C155.421 175.027 155.886 174.836 156.403 174.707C156.925 174.572 157.465 174.475 158.021 174.416C158.693 174.346 159.237 174.284 159.655 174.229C160.072 174.17 160.376 174.08 160.564 173.961C160.758 173.837 160.855 173.645 160.855 173.387V173.342C160.855 172.78 160.689 172.345 160.356 172.037C160.023 171.729 159.543 171.574 158.916 171.574C158.255 171.574 157.731 171.719 157.343 172.007C156.96 172.295 156.702 172.636 156.567 173.029L154.047 172.671C154.246 171.975 154.574 171.393 155.031 170.926C155.488 170.453 156.048 170.1 156.709 169.867C157.37 169.628 158.101 169.509 158.901 169.509C159.453 169.509 160.003 169.573 160.55 169.703C161.096 169.832 161.596 170.046 162.048 170.344C162.501 170.637 162.864 171.038 163.137 171.545C163.416 172.052 163.555 172.686 163.555 173.446V181.112H160.96V179.539H160.87C160.706 179.857 160.475 180.155 160.177 180.434C159.883 180.707 159.513 180.929 159.066 181.098C158.623 181.262 158.104 181.344 157.507 181.344ZM158.208 179.36C158.75 179.36 159.22 179.253 159.617 179.039C160.015 178.821 160.321 178.532 160.535 178.174C160.753 177.816 160.863 177.426 160.863 177.003V175.654C160.778 175.723 160.634 175.788 160.43 175.848C160.231 175.907 160.008 175.959 159.759 176.004C159.51 176.049 159.264 176.089 159.021 176.123C158.777 176.158 158.566 176.188 158.387 176.213C157.984 176.268 157.624 176.357 157.306 176.481C156.987 176.606 156.736 176.78 156.552 177.003C156.368 177.222 156.276 177.506 156.276 177.854C156.276 178.351 156.458 178.726 156.821 178.98C157.184 179.233 157.646 179.36 158.208 179.36Z" fill="black"/>
<path d="M147.674 181.336C146.525 181.336 145.533 181.098 144.698 180.62C143.868 180.138 143.229 179.457 142.782 178.577C142.334 177.692 142.11 176.65 142.11 175.452C142.11 174.274 142.334 173.24 142.782 172.35C143.234 171.455 143.865 170.759 144.676 170.262C145.486 169.76 146.438 169.509 147.532 169.509C148.238 169.509 148.904 169.623 149.53 169.852C150.162 170.076 150.719 170.424 151.201 170.896C151.688 171.368 152.071 171.97 152.349 172.701C152.628 173.426 152.767 174.291 152.767 175.296V176.123H143.378V174.304H150.179C150.174 173.787 150.062 173.327 149.844 172.924C149.625 172.517 149.319 172.196 148.926 171.962C148.539 171.729 148.086 171.612 147.569 171.612C147.017 171.612 146.533 171.746 146.115 172.014C145.697 172.278 145.372 172.626 145.138 173.059C144.909 173.486 144.793 173.956 144.788 174.468V176.056C144.788 176.723 144.909 177.294 145.153 177.772C145.397 178.244 145.737 178.607 146.175 178.86C146.612 179.109 147.124 179.233 147.711 179.233C148.104 179.233 148.459 179.179 148.777 179.069C149.095 178.955 149.371 178.788 149.605 178.57C149.839 178.351 150.015 178.08 150.134 177.757L152.655 178.04C152.496 178.706 152.193 179.288 151.745 179.785C151.303 180.277 150.736 180.66 150.045 180.934C149.354 181.202 148.563 181.336 147.674 181.336Z" fill="black"/>
<path d="M133.521 181.113H128.346V165.84H133.626C135.142 165.84 136.444 166.146 137.533 166.757C138.627 167.364 139.467 168.236 140.054 169.375C140.64 170.513 140.934 171.875 140.934 173.461C140.934 175.052 140.638 176.419 140.046 177.563C139.46 178.706 138.612 179.584 137.503 180.195C136.4 180.807 135.072 181.113 133.521 181.113ZM131.112 178.719H133.387C134.451 178.719 135.338 178.525 136.049 178.137C136.76 177.744 137.295 177.16 137.653 176.385C138.01 175.604 138.189 174.63 138.189 173.461C138.189 172.293 138.01 171.324 137.653 170.553C137.295 169.777 136.765 169.198 136.064 168.815C135.368 168.428 134.503 168.234 133.469 168.234H131.112V178.719Z" fill="black"/>
<path d="M114.275 185.408C113.907 185.408 113.567 185.378 113.254 185.319C112.945 185.264 112.699 185.199 112.515 185.125L113.142 183.022C113.534 183.136 113.885 183.191 114.193 183.186C114.501 183.181 114.772 183.084 115.006 182.895C115.245 182.711 115.446 182.403 115.61 181.97L115.841 181.351L111.688 169.658H114.551L117.191 178.309H117.31L119.958 169.658H122.829L118.243 182.5C118.029 183.106 117.745 183.626 117.392 184.058C117.039 184.496 116.607 184.829 116.095 185.058C115.588 185.291 114.981 185.408 114.275 185.408Z" fill="black"/>
<path d="M95.001 181.113V169.658H97.5812V171.604H97.7155C97.9541 170.948 98.3493 170.436 98.9012 170.068C99.453 169.695 100.112 169.509 100.877 169.509C101.653 169.509 102.307 169.698 102.839 170.076C103.376 170.448 103.753 170.958 103.972 171.604H104.092C104.345 170.968 104.773 170.461 105.374 170.083C105.981 169.7 106.699 169.509 107.529 169.509C108.583 169.509 109.443 169.842 110.11 170.508C110.776 171.174 111.109 172.146 111.109 173.424V181.113H108.402V173.842C108.402 173.131 108.213 172.611 107.835 172.283C107.457 171.95 106.995 171.783 106.448 171.783C105.797 171.783 105.287 171.987 104.919 172.395C104.556 172.798 104.375 173.322 104.375 173.968V181.113H101.728V173.73C101.728 173.138 101.549 172.666 101.191 172.313C100.838 171.96 100.375 171.783 99.8035 171.783C99.4157 171.783 99.0628 171.883 98.7446 172.082C98.4264 172.276 98.1729 172.551 97.9839 172.909C97.795 173.262 97.7006 173.675 97.7006 174.147V181.113H95.001Z" fill="black"/>
</svg>
