<svg width="1512" height="982" viewBox="0 0 1512 982" fill="none" xmlns="http://www.w3.org/2000/svg">
<g clip-path="url(#clip0_3077_6572)">
<path d="M497.851 -358.006C433.483 -488.58 115.036 -553.06 167.587 -293.076C176.203 -250.447 177.07 -177.044 167.587 -87.6983C158.899 -5.85214 -11.1638 38.9319 -63.3675 144.686C-145.238 310.54 160.87 426.141 112.158 513.327C48.3559 627.519 -147.002 677.065 -255.059 739.54C-356.784 798.352 -421.58 892.721 -446.459 989.741C-490.106 1159.95 -410.897 1338.33 -192.702 1347.2C-83.4744 1351.64 60.5822 1313.61 241.491 1210.81C322.377 1164.85 393.7 1126.98 457.088 1096.35C620.239 1017.52 576.375 1203.98 770.377 1210.81C880.918 1214.71 996.372 1053.74 1083.77 1139.6C1145.92 1200.65 1217.23 1274.73 1319.08 1350.89C1497.93 1484.64 1721.55 1504.34 1753.18 1313.45C1768.11 1223.34 1740.26 1086.3 1644.72 892.185C1583.58 767.962 1735.66 772.341 1753.18 613.155C1770.71 453.969 1627.42 380.558 1731.15 314.673L1733.22 313.354C1812.28 263.142 1896.6 209.588 1942.65 106.728C1982.32 18.1235 1978.53 -69.6328 1942.65 -137.065C1904.26 -209.232 1829.11 -258.12 1731.15 -259.854C1632.85 -261.594 1511.59 -215.861 1381.43 -98.5386C1295.62 -21.1857 1237.51 -201.174 1083.77 -182.775C930.034 -164.376 908.666 9.29036 816.567 -41.0798C656.585 -128.577 573.237 -205.081 497.851 -358.006Z" stroke="#E1E1E1"/>
<path d="M808.381 354.244C798.586 334.199 752.933 339.461 750.622 361.185C747.992 385.92 764.028 418.153 762.174 442.946C758.595 490.818 736.904 504.445 693.713 529.676C678.232 538.705 668.371 553.192 664.585 568.087C657.942 594.217 669.997 621.6 703.203 622.963C719.826 623.645 741.749 617.806 769.281 602.025C781.59 594.969 792.445 589.154 802.092 584.453C844.086 562.346 883.171 579.668 897.464 591.092C906.921 600.465 917.775 611.837 933.274 623.529C960.493 644.062 1001.71 641.372 999.339 617.781C995.985 584.453 923.003 460.049 999.339 438.356C1034.8 428.28 1033.63 405.455 1028.17 395.103C1022.33 384.024 1010.89 376.519 995.985 376.253C981.026 375.986 956.245 395.103 942.764 401.017C892.997 422.851 848.591 434.137 808.381 354.244Z" stroke="#E1E1E1"/>
<path d="M220.831 -236.194C174.193 -472.87 465.2 -413.872 524.213 -294.169C596.463 -147.826 676.338 -79.2394 826.428 -1.60333C910.839 43.9575 931.152 -114.612 1071.92 -131.847C1212.69 -149.081 1266.47 14.25 1345.23 -56.115C1465.01 -162.833 1576.38 -203.765 1666.35 -201.182C1755.73 -199.137 1824.26 -153.909 1858.88 -87.5051C1891.21 -25.409 1893.88 55.1755 1856.17 136.244C1806.96 232.606 1735.9 292.585 1663.73 341.626C1569.46 402.634 1698.95 470.017 1681.78 614.943C1664.62 759.869 1524.69 755.482 1579.08 867.576C1664.6 1043.13 1688.96 1166.78 1674.51 1247.92C1645.08 1421.08 1440.4 1402.51 1276.14 1280.56C1181.94 1210.99 1115.21 1143.7 1056.76 1089.15C976.356 1011.46 870.32 1158.44 768.621 1155.53C590.852 1150.03 629.637 980.868 480.19 1052.89C421.514 1081.06 355.742 1115.63 281.391 1157.42C113.766 1250.82 -18.4041 1282.95 -117.183 1276.56C-315.542 1267.81 -387.302 1104.86 -347.145 949.4C-324.065 860.532 -264.533 774.144 -171.272 720.228C-69.0241 661.111 110.7 614.803 169.077 506.59C213.484 426.148 -65.3594 319.685 8.81922 167.502C56.0044 69.9996 210.436 27.9692 218.46 -47.6119C227.194 -129.881 227.495 -197.273 220.831 -236.194Z" stroke="#E1E1E1"/>
<path d="M276.464 -176.917C235.806 -389.509 498.949 -336.186 552.52 -227.748C621.528 -88.4824 697.815 -28.0359 837.795 39.489C914.396 80.0917 933.623 -62.8598 1061.22 -78.8728C1188.81 -94.8857 1238.18 51.2543 1309.77 -11.8922C1419 -107.656 1520.32 -143.653 1601.83 -140.238C1682.5 -137.891 1744.31 -96.4731 1775.1 -36.0509C1803.84 20.5043 1805.38 93.6512 1769.69 166.917C1717.8 255.559 1661.17 321.711 1596.59 369.03C1511.91 424.958 1627.42 486.092 1610.64 616.282C1593.86 746.472 1466.28 742.093 1513.85 841.692C1589.22 998.112 1610.04 1107.98 1596.1 1179.88C1568.92 1334.74 1383.48 1317.37 1234.04 1207.6C1147.63 1144.86 1085.58 1084.58 1030.9 1036.71C957.622 967.436 861.159 1099.94 768.452 1098.03C607.174 1093.87 640.825 942.57 505.3 1007.55C451.422 1033.16 391.297 1064.33 323.588 1101.8C169.491 1185.5 49.401 1211.63 -38.7852 1203.3C-217.016 1194.72 -281.222 1047.72 -244.615 907.53C-223.367 827.108 -169.185 748.984 -84.5242 700.141C11.7647 644.58 175.593 601.666 228.46 499.794C268.496 426.362 17.3261 329.39 83.7038 191.38C125.801 102.451 264.375 63.3145 271.724 -5.75138C279.695 -80.6713 281.166 -141.83 276.464 -176.917Z" stroke="#E1E1E1"/>
<path d="M329.693 -120.033C294.954 -309.316 530.638 -261.475 578.85 -163.909C644.724 -31.2276 717.543 21.3014 847.631 78.9662C916.539 114.76 934.711 -13.0945 1049.33 -27.943C1163.94 -42.7914 1208.98 86.6916 1273.51 30.5331C1372.36 -54.6265 1463.79 -85.8222 1536.96 -81.5648C1609.05 -78.9066 1664.23 -41.1499 1691.24 13.509C1716.42 64.728 1716.84 130.703 1683.12 196.432C1628.45 277.673 1586.18 350.214 1529.09 395.976C1453.88 447.026 1555.57 502.133 1539.15 618.061C1522.73 733.99 1407.31 729.604 1448.12 817.074C1513.47 954.934 1530.79 1051.41 1517.33 1114.34C1492.35 1251.48 1325.86 1235.23 1191.02 1137.25C1112.27 1081.12 1054.8 1027.62 1003.81 986.255C937.534 925.148 850.494 1043.66 766.635 1042.74C621.601 1039.91 650.168 905.909 528.355 964.08C479.192 987.234 424.622 1015.1 363.45 1048.4C222.643 1122.71 114.447 1142.94 36.7183 1132.65C-121.66 1124.19 -178.411 992.623 -145.295 867.183C-125.847 794.914 -76.9319 724.77 -0.740381 680.825C89.7403 628.622 237.926 588.947 285.365 493.055C321.092 426.368 97.2081 338.535 155.887 214.197C192.961 133.52 315.891 97.1375 322.576 34.3372C329.797 -33.505 332.439 -88.6526 329.693 -120.033Z" stroke="#E1E1E1"/>
<path d="M385.3 -63.1519C356.541 -229.119 564.348 -186.76 607.115 -100.068C669.741 26.0398 738.963 70.6469 858.93 118.445C920.023 149.427 937.108 36.6737 1038.54 22.9893C1139.98 9.30478 1180.6 122.125 1237.96 72.9563C1326.25 -1.59519 1407.62 -27.9868 1472.34 -22.8848C1535.71 -19.9151 1584.16 14.181 1607.35 63.0762C1628.93 108.959 1628.23 167.76 1596.52 225.952C1539.18 299.793 1511.35 378.746 1461.85 422.956C1396.23 469.129 1483.94 518.206 1467.9 619.87C1451.87 721.534 1348.81 717.139 1382.79 792.475C1437.99 911.767 1451.77 994.856 1438.83 1048.81C1416.09 1168.2 1268.85 1153.08 1148.85 1066.9C1077.89 1017.37 1025.11 970.664 977.902 935.804C918.743 882.868 841.282 987.384 766.42 987.451C637.886 985.949 661.318 869.261 553.434 920.623C509.072 941.317 460.153 965.881 405.628 995.001C278.359 1059.91 182.249 1074.24 115.117 1061.99C-23.1269 1053.66 -72.321 937.518 -42.7567 826.836C-25.1427 762.722 18.419 700.56 86.0059 661.512C170.519 612.664 302.799 576.227 344.725 486.309C376.08 426.366 179.881 347.673 230.756 237.009C262.742 164.585 369.807 130.955 375.817 74.4204C382.276 13.6565 386.085 -35.4792 385.3 -63.1519Z" stroke="#E1E1E1"/>
<path d="M440.885 -3.59254C418.104 -145.873 598.028 -109.092 635.349 -33.4668C694.715 85.7809 760.329 122.367 870.161 160.192C923.438 186.294 939.433 88.8944 1027.68 76.4048C1115.94 63.9152 1152.13 159.82 1202.32 117.752C1280.06 53.9749 1351.37 32.4459 1407.61 38.3804C1462.27 41.6546 1503.99 72.0136 1523.36 115.035C1541.35 155.478 1539.52 206.975 1509.84 257.499C1449.84 323.774 1436.43 408.955 1394.52 451.513C1338.5 492.705 1412.22 535.644 1396.57 622.815C1380.93 709.987 1290.24 705.594 1317.39 768.628C1362.44 869.085 1372.7 938.6 1360.26 983.457C1339.77 1084.85 1211.78 1070.89 1106.63 996.697C1043.47 953.87 995.378 914.063 951.957 885.787C899.922 841.14 832.042 931.426 766.18 932.482C654.151 932.312 672.452 833.194 578.5 877.633C538.942 895.819 495.677 917.028 447.801 941.906C334.08 997.278 250.06 1005.67 193.522 991.485C75.4143 983.3 33.7763 882.847 59.788 787.169C75.5666 731.353 113.773 677.312 172.753 643.249C251.287 597.867 367.655 564.749 404.068 481.009C431.049 427.946 262.537 358.569 305.61 261.827C332.506 197.817 423.709 167.016 429.043 116.874C434.738 63.3242 439.712 20.3106 440.885 -3.59254Z" stroke="#E1E1E1"/>
<path d="M494.061 53.2893C477.211 -65.6631 629.627 -34.3672 661.579 30.3807C717.81 143.066 779.953 171.724 879.88 199.673C925.451 220.961 940.39 138.669 1015.64 127.343C1090.89 116.017 1122.75 195.249 1165.86 160.175C1233.2 107.011 1294.6 90.2903 1342.5 97.0717C1388.55 100.659 1423.64 127.357 1439.21 164.613C1453.65 199.718 1450.69 244.04 1422.97 287.023C1360.19 345.899 1361.17 437.518 1326.77 478.529C1280.23 514.843 1340.11 551.752 1324.82 624.651C1309.53 697.55 1231.02 693.148 1251.41 744.039C1286.41 825.916 1293.15 882.03 1281.2 917.905C1262.92 1001.55 1153.92 988.716 1063.39 926.325C1007.89 890.1 964.391 857.088 924.665 835.324C879.646 798.853 821.207 875.138 764.208 877.184C668.451 878.346 681.657 796.548 601.442 834.175C566.606 849.901 528.905 867.808 487.577 888.506C387.168 934.477 315.063 936.95 269.003 920.802C170.785 912.742 136.617 827.723 159.13 746.81C173.106 699.152 206.037 653.095 256.532 623.931C329.252 581.901 429.95 552.021 460.925 474.25C483.589 427.932 342.414 367.697 377.773 284.634C399.637 228.877 475.165 200.828 479.835 156.952C484.779 110.483 490.927 73.483 494.061 53.2893Z" stroke="#E1E1E1"/>
<path d="M549.578 110.167C538.701 14.5609 663.207 40.3687 689.705 94.2341C742.65 200.381 801.154 221.1 890.908 239.157C928.652 255.625 942.495 188.451 1004.55 178.288C1066.6 168.124 1094.03 230.668 1129.96 202.594C1186.72 160.053 1238.04 148.146 1277.47 155.779C1314.79 159.681 1343.15 182.718 1354.9 214.208C1365.74 243.974 1361.66 281.117 1335.98 316.555C1270.59 368.033 1285.95 466.14 1259.14 505.616C1222.21 537.052 1268.1 567.928 1253.21 626.543C1238.32 685.158 1172.19 680.746 1185.75 719.48C1210.61 782.758 1213.84 825.458 1202.4 852.339C1186.37 918.22 1096.64 906.51 1020.98 855.929C973.295 826.312 934.503 800.1 898.579 784.858C860.695 756.572 811.85 818.844 763.866 821.885C684.634 824.383 692.712 759.92 626.446 790.731C596.425 803.995 564.388 818.598 529.719 835.114C442.888 871.674 382.889 868.218 347.427 850.092C269.358 842.156 242.749 772.581 261.704 706.441C273.84 666.945 301.408 628.878 343.285 604.616C409.994 565.931 494.756 539.286 520.211 467.47C538.498 427.899 425.032 376.809 452.584 307.43C469.359 259.929 529.015 234.628 533.007 197.02C537.186 157.632 544.492 126.649 549.578 110.167Z" stroke="#E1E1E1"/>
<path d="M603.537 167.04C598.586 94.8109 695.852 115.125 717.042 158.099C767.009 257.741 822.216 270.505 902.308 278.645C932.431 290.286 945.258 238.247 994.446 229.244C1043.63 220.242 1066.79 266.073 1095.73 245.008C1142.23 213.103 1183.76 206.022 1214.92 214.514C1243.72 218.733 1265.5 238.109 1273.48 263.829C1280.78 288.253 1275.56 318.212 1251.77 346.098C1183.37 390.18 1213.24 494.85 1193.89 532.807C1166.36 559.366 1198.49 584.203 1183.91 628.516C1169.34 672.829 1115.23 668.404 1122.04 694.96C1136.88 739.607 1136.58 768.868 1125.59 786.739C1111.72 834.829 1040.79 824.242 979.576 785.484C939.441 762.481 905.135 743.08 872.809 734.374C841.851 714.286 802.335 762.531 763.101 766.571C699.963 770.411 702.948 723.31 650.271 747.298L648.805 747.922C623.875 758.533 597.805 769.631 570.147 781.72C496.41 808.858 448.19 799.45 423.142 779.328C364.807 771.512 345.619 717.398 361.12 666.048C371.484 634.721 393.84 604.651 427.327 585.294C488.41 549.947 557.701 526.533 577.774 460.656C591.782 427.834 505.419 385.893 525.309 330.209C537.081 290.967 581.179 268.411 584.516 237.071C587.954 204.769 596.465 179.806 603.537 167.04Z" stroke="#E1E1E1"/>
<path d="M658.92 226.673C659.938 178.137 729.207 192.869 744.923 224.76C791.537 317.447 843.034 322.201 912.856 320.392C935.125 327.155 946.838 290.48 982.781 282.679C1018.72 274.878 1037.42 303.796 1059.15 289.832C1095.03 268.705 1126.44 266.478 1149.1 275.79C1169.16 280.308 1184.18 295.936 1188.34 315.771C1192.03 334.745 1185.71 357.388 1163.98 377.598C1093.07 414.087 1137.26 524.84 1125.51 561.104C1107.61 582.667 1125.73 601.357 1111.57 631.173C1097.41 660.989 1055.75 656.571 1055.73 670.834C1060.43 696.656 1056.61 712.352 1046.16 721.135C1034.56 751.225 982.963 741.807 936.676 715.043C904.398 698.756 874.84 686.251 846.355 684.118C822.563 672.315 792.681 706.32 762.501 711.341C715.948 716.504 713.81 686.971 675.132 704.029C654.601 712.318 633.742 720.256 612.228 728.34C552.15 745.935 516.082 730.621 501.649 708.598C463.509 700.937 451.892 662.523 463.82 626.189C472.333 603.17 489.303 581.229 514.141 566.864C569.137 535.013 622.422 514.936 636.956 455.294C646.575 429.368 587.993 396.762 600.064 355.02C606.738 324.212 634.93 304.502 637.586 279.571C640.256 254.497 649.91 235.666 658.92 226.673Z" stroke="#E1E1E1"/>
<path d="M715.122 283.625C722.082 258.613 763.573 267.808 773.862 288.716C817.198 374.657 865.066 371.436 924.756 359.704C939.234 361.617 949.855 340.185 972.662 333.567C995.468 326.948 1009.76 339.063 1024.34 332.15C1049.69 321.724 1071.07 324.333 1085.3 334.481C1096.67 339.306 1105 351.229 1105.34 365.238C1105.46 378.816 1098.03 394.211 1078.33 406.809C1004.84 435.802 1063.32 552.846 1059.13 587.497C1050.79 604.122 1054.99 616.721 1041.23 632.145C1027.46 647.568 998.13 643.148 991.329 645.185C985.936 652.291 978.615 654.495 968.676 654.237C959.319 666.441 926.907 658.171 895.416 643.31C870.916 633.685 846.046 628.029 821.348 632.445C804.658 628.878 784.326 648.756 763.118 654.764C733.012 661.257 725.774 649.178 700.979 659.363C685.241 665.165 670.02 669.771 655.134 673.643C608.573 681.76 584.555 660.527 580.667 636.562C562.576 629.04 558.481 606.2 566.867 584.763C573.548 569.981 585.181 556.1 601.441 546.683C650.449 518.252 687.871 501.461 696.911 447.915C702.175 428.81 671.166 405.445 675.469 377.518C677.079 355.055 689.477 338.142 691.459 319.55C693.369 301.632 704.172 288.876 715.122 283.625Z" stroke="#E1E1E1"/>
</g>
<defs>
<clipPath id="clip0_3077_6572">
<rect width="1512" height="982" fill="white"/>
</clipPath>
</defs>
</svg>
