<svg width="224" height="227" viewBox="0 0 224 227" fill="none" xmlns="http://www.w3.org/2000/svg">
  <path
    d="M10.373 0.0661037C15.2594 -0.103239 21.6648 0.0778292 26.5327 0.326357C28.0584 0.403437 27.2858 0.74799 28.339 0.816712C30.3988 0.950679 32.3177 0.781696 34.3532 0.941284C35.0277 0.995859 34.188 1.54163 34.8954 1.58636C38.7715 1.82756 42.4384 1.68855 46.3649 1.80456C65.7056 2.37695 84.7172 2.58183 104.295 2.8305C110.75 2.91202 118.597 3.40734 125.264 3.19073C126.043 3.16495 125.579 2.6859 125.727 2.64642C128.049 2.04197 127.277 3.00907 128.794 3.13757C134.813 3.6449 141.506 3.68902 147.299 3.50414C149.763 3.42408 147.292 2.47257 149.773 3.00665C149.946 3.04273 149.32 3.55145 149.996 3.6057C151.529 3.72774 154.437 3.63681 155.625 3.67712C157.914 3.75737 158.293 3.75225 160.458 3.75805C163.418 3.7704 166.939 4.02328 170.114 3.90801C170.792 3.88189 169.895 3.3604 170.976 3.27166C172.058 3.18306 174.921 3.22728 175.886 3.35021C176.851 3.47321 176.44 3.88309 176.611 3.97704C178.016 4.77002 181.328 3.67174 181.754 3.64458C189.522 3.18179 196.183 3.80744 203.475 3.80565C208.965 3.803 214.833 3.5998 220.067 3.6241L222.9 3.58187L222.943 6.5C222.943 6.54336 222.943 6.58667 222.942 6.62994C222.907 12.9052 222.624 18.2236 222.673 24.3199C222.677 24.9632 223.29 24.2093 223.297 24.9951C223.368 33.3436 223.302 41.6341 222.888 49.9466C222.846 50.7803 222.307 49.7059 222.233 50.5387C221.791 55.638 220.728 63.7065 223.072 66.7351C222.98 70.1892 222.886 74.3826 222.413 77.4728C222.109 79.4652 221.523 77.53 221.773 79.9776C221.829 80.5295 222.342 79.8117 222.387 80.6395C222.575 84.1248 222.408 87.9326 222.673 91.3805C222.729 92.0818 223.189 91.8903 223.272 92.0891C223.943 93.7591 222.833 96.5391 222.753 97.1452C222.152 101.76 222.388 105.13 222.373 109.43C222.37 110.427 222.988 109.248 223.007 110.208C223.095 115.187 223.042 120.345 222.768 125.22C222.705 126.305 222.179 125.307 222.122 125.826C221.878 128.111 222.872 128.617 222.658 130.809C222.614 131.271 222.163 131.01 222.113 131.095C221.336 132.414 222.437 133.56 222.462 133.899C222.794 138.19 221.644 140.933 221.807 145.079C221.828 145.575 222.398 144.457 222.421 145.851C222.579 155.139 222.422 164.962 221.966 174.155C221.895 175.585 221.467 174.564 221.414 174.654C220.589 176.12 221.695 177.069 221.736 177.535C222.036 181.212 221.109 184.647 222.426 187.145C222.059 199.64 222.463 212.089 222.027 224.5L222.056 226.43L220.067 226.46C217.011 226.353 213.957 226.194 210.905 225.961C210.709 225.948 211.061 225.403 210.669 225.378C205.952 225.072 206.858 225.919 203.737 226.954C202.951 227.214 200.559 225.964 200.347 225.872C199.576 225.535 200.376 224.725 200.118 224.659C197.982 224.146 198.33 226.825 195.448 226.826C195.357 226.822 195.736 226.329 195.494 226.279C194.743 226.126 193.997 226.322 193.262 226.152C191.579 225.759 190.98 224.457 188.409 225.215C188.084 225.313 188.58 226.833 186.007 226.761C184.981 226.731 180.441 226.757 179.168 226.659C177.897 226.56 178.77 226.071 178.679 226.049C175.254 225.402 176.553 225.133 174.837 224.174C173.121 223.219 173.597 225.498 172.898 225.752C172.197 226.005 169.686 225.471 169.069 225.285C168.452 225.099 169.222 224.788 168.673 224.683C165.037 223.996 167.077 225.814 165.879 226.176C163.054 227.032 160.854 225.342 158.268 225.177C157.568 225.132 158.139 225.517 157.516 225.553C155.049 225.69 153.565 225.163 150.757 225.646C150.298 225.725 148.028 226.741 146.559 225.995C146.351 225.888 146.942 225.467 145.891 225.373C144.32 225.231 141.489 225.139 139.8 225.28C138.553 225.384 139.982 226.078 138.413 225.862C137.715 225.766 139.008 225.36 137.698 225.213C136.394 225.066 133.061 225.084 131.793 225.098C130.527 225.112 131.22 225.639 131.118 225.674C130.499 225.877 128.069 226.131 127.855 226.13C117.026 226.195 107.04 225.307 96.4965 225.601C95.6691 225.623 96.2202 226.178 96.094 226.187C93.2614 226.42 95.4948 224.944 93.516 224.451C93.802 225.577 92.634 225.373 90.6387 225.496C89.6772 225.557 90.2009 225.993 90.1131 226.037C88.6873 226.7 87.6944 225.844 87.4387 225.669C86.4944 225.026 85.4667 225.786 84.8241 225.356C84.1819 224.929 85.6599 224.296 83.7463 224.304C83.2098 224.707 84.6304 225.76 83.1775 225.931C77.6959 226.577 67.4635 225.75 63.056 225.665C58.6573 225.579 57.2366 225.653 54.6734 225.507C50.0435 225.244 51.7403 226.026 48.8655 226.383C45.9822 226.741 47.3838 224.818 46.9694 224.405C46.5626 223.991 46.1183 224.417 45.6122 224.19C45.1078 223.962 46.1998 223.681 45.0135 223.596C43.8264 223.511 40.581 224.246 40.1602 224.678C39.2707 225.594 40.7332 226.555 37.5922 226.218C37.4116 226.198 37.9978 225.692 37.3061 225.641C31.8122 225.251 26.1047 225.227 20.6175 224.883C19.863 224.835 20.5377 224.272 20.0986 224.238C15.525 223.878 17.1599 224.827 14.6532 225.88C15.2161 224.478 13.8298 223.62 10.3588 223.612C8.27216 223.606 8.63148 224.219 7.28184 224.651C6.87697 224.781 5.4005 224.36 5.13298 224.648C4.25111 225.589 5.64031 226.643 2.06714 226.224L0.368754 226.25L0.342668 224.5C0.342841 224.499 0.343015 224.497 0.343189 224.496C0.350219 224.44 0.418816 224.467 0.506066 224.5L0.52968 226.084L2.06714 226.061C2.11119 225.946 2.16765 225.799 2.06714 225.718L0.867955 225.735L0.849536 224.5C0.881893 224.46 0.903979 224.396 0.909715 224.296C1.11401 220.789 0.129201 220.369 0.00993762 216.579C-0.0836431 213.607 0.516881 208.323 0.61455 204.94C2.19112 205.011 1.83011 201.815 0.74309 200.519C0.787592 198.323 0.726141 195.951 0.87639 193.829C0.927614 193.099 1.38407 193.579 1.43339 193.487C2.20709 192.074 1.14954 191.12 1.10808 190.646C0.705053 185.509 1.50659 181.324 0.723253 176.422C0.69504 176.248 -0.400095 175.966 0.399524 174.656C0.454643 174.571 0.95291 176.19 0.991441 173.884C1.03006 171.578 1.61713 167.23 1.10967 164.028C0.987496 163.253 0.0984682 161.293 0.793077 159.72C0.8874 159.511 1.20149 159.74 1.37627 159.437C1.93318 158.459 0.826269 157.926 1.76665 156.776C2.70698 155.627 3.41122 153.236 2.76243 150.007C2.74357 149.904 1.86624 149.14 1.88011 148.124C1.90301 146.503 2.08577 144.202 2.08006 142.509C2.07701 141.699 1.53223 142.217 1.52226 142.077C1.21699 136.628 1.70265 132.749 1.91343 126.912C1.95315 125.842 1.21026 122.766 1.79759 120.695C2.44053 118.42 5.11507 120.757 4.47788 115.529C4.22302 113.42 0.829883 110.75 2.58787 106.96C2.15225 99.6094 3.05199 92.8119 2.42997 85.4411C2.40242 85.1097 1.45542 84.0615 1.46831 83.2823C1.48927 82.1254 1.93188 81.4904 1.96104 80.6644C2.09436 77.2031 1.71568 74.0356 1.77458 70.6984C1.79598 69.4314 2.25364 69.8744 2.27922 68.3633C2.30437 66.853 1.70172 65.846 1.99278 63.7994C2.21463 62.2538 3.44643 60.7083 3.59 58.6567C2.37498 58.5785 2.4 57.1695 2.07927 54.665C2.01704 54.1837 1.59414 54.6999 1.54289 54.4721C1.32493 53.5454 1.67542 52.6876 1.43816 51.8076C1.38117 51.5936 0.966233 51.5835 0.896226 51.4085C0.285151 49.9203 1.21851 47.4686 1.38103 47.0475C1.99821 45.4337 1.45854 44.6795 1.70158 43.4417C1.9446 42.2059 2.24839 44.0537 2.39586 42.6101C2.70088 39.6178 2.63387 35.773 2.65293 32.7339C2.65798 31.5214 2.1041 32.3487 2.09196 32.1751C1.95148 29.6677 2.54065 27.1321 1.43736 25.7418C4.29006 24.0033 1.16067 24.2298 1.73173 20.6457C1.77792 20.3634 3.12694 20.0042 3.32499 21.0881C3.52285 22.172 3.10117 23.8155 3.40989 25.3193C3.48234 25.6755 4.74646 27.7154 4.82303 27.9938C5.42149 30.174 3.40556 30.483 3.29484 30.5984C2.09994 31.9064 3.46178 34.3993 3.55589 35.0558C3.98706 38.059 3.70356 40.6105 4.01133 43.1224C4.21024 44.7652 5.53075 44.9259 5.49033 46.2159C5.35673 50.5043 3.51462 52.0011 5.11185 56.0422C5.45251 56.9087 6.89578 56.0476 5.7609 59.1524C5.68935 59.3475 4.65114 61.6526 5.30783 62.9844C5.39063 63.1517 5.81125 63.1464 5.84659 63.367C6.07515 64.8454 5.74005 65.8313 5.90054 67.4418C6.06103 69.0522 6.30029 70.9886 6.15762 72.8273C6.07231 73.9354 5.28864 75.3572 5.09677 75.8876C4.54407 77.3854 5.45028 78.9913 4.78098 79.9193C4.10831 80.8549 3.08677 79.0256 2.65214 81.4793C3.74495 81.5702 4.8666 81.7789 5.96561 81.9251C5.92713 87.3024 5.57376 92.5932 5.62204 97.9884C5.62912 98.6573 6.21662 97.9732 6.23935 98.6902C6.33268 101.716 5.91388 104.358 6.08066 107.495C6.212 109.924 6.83404 112.587 6.99075 115.126C5.74027 116.677 6.16478 120.445 6.05051 123.183C6.01102 124.142 5.67704 124.078 5.56809 124.759C5.16512 127.332 6.27016 126.127 6.44406 126.832C7.18625 129.858 4.68506 130.117 4.74686 133.684C4.74929 133.873 6.08253 136.184 6.16556 136.502C6.70695 138.524 5.70151 136.836 5.603 138.102C5.42298 140.412 5.10458 142.017 5.49509 144.728C5.61076 145.518 6.44175 147.414 5.79898 148.949C5.71481 149.151 5.27413 149.039 5.24832 149.202C4.81813 152.144 6.20282 152.221 6.67178 153.902C7.14064 155.584 6.18477 158.18 5.90927 158.709C5.19658 160.091 5.6047 157.649 5.53476 157.575C4.70246 156.695 4.84575 158.589 4.77543 160.036C3.41772 160.246 3.49921 162.269 4.70798 161.536C4.84001 161.453 4.7134 160.327 4.77543 160.036C6.10752 161.306 6.27812 163.531 5.0333 165.987C4.44987 167.137 3.76962 166.05 4.01847 169.543C4.13081 171.128 5.06566 170.516 5.32053 171.915C5.90205 175.111 5.02999 179.264 5.16739 182.559C5.21728 183.755 5.72901 182.59 5.78073 183.408C5.9196 185.577 5.53564 187.49 5.73233 189.668C5.7508 189.865 6.28648 189.383 6.2933 190.06C6.35551 195.196 6.01241 199.668 6.0029 205.029C5.99855 207.62 6.29399 212.252 6.23459 214.935C6.17033 217.931 5.82446 221.37 5.63682 224.5L2.06714 220.93C3.79805 221.034 5.4346 221.089 6.84941 221.022C9.44101 220.901 8.87245 220.365 9.9829 220C12.1258 219.292 15.9187 220.56 16.4295 220.756C16.4451 220.763 14.2151 220.889 15.405 221.164C16.0968 221.737 16.4044 220.759 16.4295 220.756C16.7649 220.883 21.2198 221.005 22.1044 220.902C22.5851 220.846 22.3162 220.339 22.5668 220.319C28.5237 219.865 34.4911 219.736 40.5328 219.973C40.6391 219.983 40.4789 220.551 40.729 220.568C44.2268 220.821 46.4664 220.126 49.3511 219.714C52.2354 219.301 54.5228 219.44 56.2302 220.414C58.4064 220.292 61.5287 220.722 63.3254 220.984C65.122 221.245 65.3728 220.14 65.5308 220.118C70.4616 219.419 73.3119 220.052 78.4274 220.15C80.8594 220.199 85.6836 220.038 88.3168 219.918C90.398 219.82 91.6517 220.079 93.5693 219.914C93.8287 219.891 93.5666 219.399 93.6458 219.38C95.7858 218.792 94.7574 219.995 95.1992 220.21C96.8011 220.991 97.7909 221.407 100.531 221.04C101.164 220.955 103.005 219.223 104.157 219.122C105.655 218.993 105.09 219.614 106.659 219.464C106.793 219.451 106.765 219.068 107.733 219.085C112.227 219.159 117.127 219.382 121.797 219.343C122.435 219.339 121.617 218.732 122.539 218.716C126.864 218.644 131.605 218.667 135.818 218.951C136.855 219.023 136.205 219.448 136.43 219.575C137.812 220.339 139.773 219.229 140.096 219.207C147.811 218.674 153.715 219.679 161.578 219.2C162.006 219.172 165.301 217.982 166.771 219.003C166.871 219.071 168.325 220.115 169.611 219.401C169.691 219.356 168.785 218.819 170.366 218.873C171.948 218.928 174.493 218.569 176.667 219.16C177.355 219.346 178.981 220.388 181.034 219.557C181.168 219.499 184.337 217.621 185.468 218.917C185.652 219.13 185.46 220.502 187.91 219.799C188.378 219.662 187.528 219.356 188.762 219.165C190.651 218.871 193.155 219.238 195.478 218.627C195.883 218.519 197.607 217.589 198.99 218.295C199.207 218.406 198.795 218.863 199.526 218.915C202.999 219.16 206.637 218.854 210.164 219.171C211.413 219.282 210.774 220.022 212.076 220.221C213.379 220.419 216.003 220.61 217.365 220.271C218.728 219.933 217.239 218.754 219.281 218.659C219.543 218.647 219.805 218.636 220.067 218.626L214.193 224.5C213.857 215.89 214.511 207.353 214.61 198.751C214.625 197.436 214.203 198.526 214.195 196.589C214.163 189.446 213.767 177.113 214.664 170.915C215.383 165.949 215.93 172.199 216.222 168.404C216.361 166.573 214.99 164.591 214.947 164.149C214.508 159.831 215.116 156.83 214.929 152.943C214.891 152.14 214.335 152.927 214.308 152.244C214.212 149.911 214.46 147.458 214.414 145.229C214.393 144.228 213.968 144.413 214.001 143.492C214.074 141.29 214.253 139.342 214.651 137.195C214.687 137 215.215 138.319 215.235 136.69C215.265 134.053 215.658 130.779 215.252 127.745C215.13 126.845 214.16 126.809 214.83 124.874C214.97 124.468 216.135 124.986 215.128 122.732C214.961 122.353 213.603 118.566 214.479 116.708C214.709 116.218 215.662 114.966 215.512 113.884C215.489 113.737 214.967 114.325 214.917 113.428C214.747 110.266 214.802 106.953 214.639 103.705C214.594 102.838 214.055 104.129 214.006 102.837C213.869 99.2818 214.007 94.8435 214.176 91.3672C214.239 90.0856 214.685 90.9715 214.734 90.8783C215.525 89.3786 214.458 88.4919 214.395 87.9942C214.023 84.8987 214.524 82.5415 214.391 79.6882C214.356 78.9007 213.847 79.4591 213.802 79.3023C213.358 77.6767 214.272 78.8876 214.373 77.8586C214.658 74.976 214.617 71.7625 214.552 68.8474C214.528 67.7766 213.938 68.98 213.922 68.0191C213.821 62.3315 213.877 56.4187 214.202 50.868C214.265 49.8229 214.719 50.4804 214.823 50.2626C215.549 48.7613 214.559 46.561 214.464 46.0547C214.034 43.7527 214.435 42.8585 214.36 40.8256C213.987 30.8944 214.253 18.6322 214.418 9.25781C214.434 8.32326 214.451 7.40472 214.47 6.5L220.067 12.0975C209.146 11.8751 200.239 11.5144 189.481 11.618C188.741 11.6246 189.487 12.229 188.849 12.2425C180.609 12.3882 172.497 12.152 164.24 12.3266C163.562 12.3398 164.539 12.9129 163.452 12.9534C161.221 13.0406 158.395 13.0094 156.14 12.8264C155.04 12.7383 156.516 12.2466 155.408 12.1679C152.83 11.9835 150.067 11.9427 147.418 12.0346C146.291 12.0749 147.992 12.661 146.527 12.6677C136.549 12.7259 126.749 12.8268 116.665 12.0679C115.974 12.0158 115.368 10.8246 113.898 11.0531C113.787 11.3836 113.793 11.7725 113.745 12.1258C99.2192 12.3162 84.8417 11.9032 70.2752 11.8394C69.661 11.8368 70.7225 12.4679 69.5334 12.4662C62.6516 12.4569 55.9689 12.6317 48.9296 12.0044C48.2311 11.9431 48.5894 10.8328 46.5312 11.0007C46.1682 11.0313 43.0682 11.1794 42.2667 11.4204C42.1579 11.4568 42.7234 11.975 41.7245 11.9901C35.9195 12.0688 29.8362 11.9505 24.0413 11.6339C23.106 11.5818 24.102 11.0299 23.4358 10.988C18.7106 10.695 13.5709 11.1146 9.05572 10.6135C6.03342 10.2761 7.15236 9.32213 5.54635 8.38309C5.31919 8.25061 3.44769 8.22962 3.35091 7.68327C3.10244 6.30942 4.00894 4.80507 3.63698 3.34069C3.5584 3.02527 1.05197 3.365 2.53593 2.60278C2.6396 2.55177 4.45678 2.29879 4.90435 2.04022C5.21596 1.86145 4.65442 1.30581 5.29021 1.07696C5.92595 0.848333 6.62454 1.3141 7.67858 1.04523C8.73216 0.773027 8.26889 0.140929 10.373 0.0661037ZM71.4153 222.153C73.0789 222.684 73.3244 220.739 71.5251 221.205C71.4379 221.229 71.3295 222.127 71.4153 222.153ZM4.10734 92.563C3.24985 94.7379 4.5107 96.2262 5.17295 94.6919C5.83448 93.1578 4.36727 91.9004 4.10734 92.563ZM3.4813 70.0098C2.80521 72.5518 5.56204 72.9519 5.00473 70.2294C4.97324 70.0711 3.52056 69.8612 3.4813 70.0098ZM12.9942 8.1157C12.9712 8.08988 11.6259 8.06472 11.5938 8.09031C10.8774 8.70776 13.5675 8.75764 12.9942 8.1157ZM2.79972 47.6297C2.4268 48.4232 2.8573 50.7079 3.32102 49.722C3.69408 48.9283 3.26362 46.6414 2.79972 47.6297ZM158.198 224.228C158.225 224.257 159.189 224.283 159.17 224.119C159.104 223.591 157.762 223.74 158.198 224.228ZM2.76799 9.59201C2.66421 15.2119 0.386939 18.6193 0.643908 12.4993C0.690401 11.391 1.37011 14.8879 1.57542 13.4773C1.94946 10.8962 0.519613 9.18229 1.28581 6.54834C1.42605 6.07153 2.77897 9.27145 2.77116 9.60199C2.7701 9.59868 2.76904 9.59536 2.76799 9.59201ZM72.3733 224.488C72.4065 224.514 73.7417 224.538 73.7737 224.512C74.4968 223.895 71.807 223.846 72.3733 224.488ZM214.478 225.43C214.552 225.484 217.65 225.536 217.751 225.485C219.368 224.476 213.103 224.369 214.478 225.43ZM0.656603 204.886C0.0356939 203.429 -0.0374112 201.687 0.742296 200.525C0.700905 201.973 0.694808 203.431 0.656603 204.886Z"
    fill="white" />
</svg>