<svg width="227" height="224" viewBox="0 0 227 224" fill="none" xmlns="http://www.w3.org/2000/svg">
<path d="M0.0661034 213.113C-0.10324 208.227 0.0778284 201.822 0.326356 196.954C0.403436 195.428 0.747989 196.2 0.816711 195.147C0.950678 193.088 0.781695 191.169 0.941283 189.133C0.995857 188.459 1.54163 189.298 1.58636 188.591C1.82756 184.715 1.68855 181.048 1.80456 177.121C2.37695 157.781 2.58183 138.769 2.83049 119.192C2.91202 112.737 3.40733 104.89 3.19072 98.222C3.16495 97.4437 2.6859 97.9077 2.64641 97.7597C2.04197 95.437 3.00907 96.2092 3.13756 94.6927C3.64489 88.6736 3.68902 81.9804 3.50414 76.1878C3.42408 73.7234 2.47256 76.1943 3.00664 73.7129C3.04272 73.5407 3.55144 74.1659 3.6057 73.4901C3.72773 71.9574 3.6368 69.0496 3.67711 67.8618C3.75736 65.5726 3.75224 65.1938 3.75804 63.0285C3.77039 60.0684 4.02327 56.5478 3.908 53.3719C3.88189 52.694 3.3604 53.5914 3.27165 52.5103C3.18305 51.4282 3.22727 48.5656 3.3502 47.6005C3.4732 46.6352 3.88308 47.0462 3.97703 46.8754C4.77001 45.4699 3.67174 42.1586 3.64458 41.7327C3.18178 33.9646 3.80743 27.303 3.80565 20.0112C3.80299 14.521 3.5998 8.65368 3.62409 3.41919L3.58186 0.58679L6.49999 0.543286C6.54335 0.543487 6.58666 0.543704 6.62993 0.543937C12.9051 0.5797 18.2236 0.862289 24.3198 0.813711C24.9632 0.809184 24.2093 0.19603 24.9951 0.189262C33.3436 0.117911 41.6341 0.184749 49.9466 0.598683C50.7803 0.640736 49.7059 1.17908 50.5387 1.25328C55.638 1.6957 63.7065 2.75851 66.7351 0.414601C70.1892 0.506127 74.3826 0.600691 77.4728 1.07317C79.4652 1.37726 77.53 1.96373 79.9776 1.71349C80.5295 1.65773 79.8117 1.14412 80.6395 1.09935C84.1248 0.911328 87.9326 1.07828 91.3805 0.812914C92.0818 0.75773 91.8903 0.297521 92.0891 0.214649C93.7591 -0.456496 96.5391 0.652951 97.1452 0.733568C101.76 1.33474 105.13 1.09816 109.43 1.11284C110.427 1.1165 109.248 0.49834 110.208 0.479662C115.187 0.391067 120.345 0.444196 125.22 0.718492C126.305 0.780992 125.307 1.30755 125.826 1.36436C128.111 1.60844 128.617 0.613896 130.809 0.828782C131.271 0.872806 131.01 1.32358 131.095 1.37309C132.414 2.15024 133.56 1.04907 133.899 1.02476C138.19 0.692582 140.933 1.84214 145.079 1.67936C145.575 1.65873 144.457 1.08836 145.851 1.06523C155.139 0.907775 164.962 1.06446 174.155 1.52067C175.585 1.59084 174.564 2.0193 174.654 2.07212C176.12 2.89741 177.069 1.79162 177.535 1.74998C181.212 1.45021 184.647 2.37755 187.145 1.06047C199.64 1.42722 212.089 1.02349 224.5 1.45921L226.43 1.43043L226.46 3.41918C226.353 6.47537 226.194 9.52921 225.961 12.5808C225.948 12.7772 225.403 12.4253 225.378 12.817C225.072 17.534 225.919 16.6281 226.954 19.7493C227.214 20.5355 225.964 22.9272 225.872 23.1389C225.535 23.9099 224.725 23.1102 224.659 23.3684C224.146 25.5048 226.825 25.1567 226.826 28.0387C226.822 28.1289 226.329 27.7503 226.279 27.9921C226.126 28.7436 226.322 29.4888 226.152 30.2242C225.759 31.9072 224.457 32.5067 225.215 35.0774C225.313 35.4028 226.833 34.9059 226.761 37.4791C226.731 38.5049 226.757 43.0456 226.659 44.3182C226.56 45.5893 226.071 44.7166 226.049 44.8072C225.402 48.232 225.133 46.9334 224.174 48.6492C223.219 50.3649 225.498 49.8891 225.752 50.5885C226.005 51.2892 225.471 53.8001 225.285 54.4172C225.099 55.0339 224.788 54.2647 224.683 54.8131C223.996 58.4493 225.814 56.4092 226.176 57.6073C227.032 60.432 225.342 62.6321 225.177 65.2181C225.132 65.9178 225.517 65.3469 225.553 65.9699C225.69 68.4376 225.163 69.9217 225.646 72.7292C225.725 73.1885 226.741 75.4581 225.995 76.9271C225.888 77.1352 225.467 76.544 225.373 77.5958C225.231 79.1668 225.139 81.9976 225.28 83.6864C225.384 84.9333 226.078 83.5041 225.862 85.0736C225.766 85.771 225.36 84.4783 225.213 85.7887C225.066 87.0922 225.084 90.4249 225.098 91.6931C225.112 92.959 225.639 92.2661 225.674 92.3684C225.877 92.9875 226.131 95.4169 226.13 95.6316C226.195 106.461 225.307 116.446 225.601 126.99C225.623 127.817 226.178 127.266 226.187 127.392C226.42 130.225 224.944 127.992 224.451 129.97C225.577 129.684 225.373 130.852 225.496 132.848C225.557 133.809 225.993 133.285 226.037 133.373C226.7 134.799 225.844 135.792 225.669 136.048C225.026 136.992 225.786 138.02 225.356 138.662C224.929 139.304 224.296 137.826 224.304 139.74C224.707 140.277 225.76 138.856 225.931 140.309C226.577 145.79 225.75 156.023 225.665 160.43C225.579 164.829 225.653 166.25 225.507 168.813C225.244 173.443 226.026 171.746 226.383 174.621C226.741 177.504 224.818 176.102 224.405 176.517C223.991 176.924 224.417 177.368 224.19 177.874C223.962 178.379 223.681 177.286 223.596 178.473C223.511 179.66 224.246 182.905 224.678 183.326C225.594 184.216 226.555 182.753 226.218 185.894C226.198 186.075 225.692 185.488 225.641 186.18C225.251 191.674 225.227 197.382 224.883 202.869C224.835 203.623 224.272 202.949 224.238 203.388C223.878 207.961 224.827 206.326 225.88 208.833C224.478 208.27 223.62 209.656 223.612 213.128C223.606 215.214 224.219 214.855 224.651 216.204C224.781 216.609 224.36 218.086 224.648 218.353C225.589 219.235 226.643 217.846 226.224 221.419L226.25 223.118L224.5 223.144C224.499 223.143 224.497 223.143 224.496 223.143C224.44 223.136 224.467 223.068 224.5 222.98L226.084 222.957L226.061 221.419C225.946 221.375 225.799 221.319 225.718 221.419L225.735 222.618L224.5 222.637C224.46 222.604 224.396 222.582 224.296 222.577C220.789 222.372 220.369 223.357 216.579 223.476C213.607 223.57 208.323 222.969 204.94 222.872C205.011 221.295 201.815 221.656 200.519 222.743C198.323 222.699 195.951 222.76 193.829 222.61C193.099 222.559 193.579 222.102 193.487 222.053C192.074 221.279 191.12 222.337 190.646 222.378C185.509 222.781 181.324 221.98 176.422 222.763C176.248 222.791 175.966 223.886 174.656 223.087C174.571 223.032 176.19 222.533 173.884 222.495C171.578 222.456 167.23 221.869 164.028 222.377C163.253 222.499 161.293 223.388 159.72 222.693C159.511 222.599 159.74 222.285 159.437 222.11C158.459 221.553 157.926 222.66 156.776 221.72C155.627 220.779 153.236 220.075 150.007 220.724C149.904 220.743 149.14 221.62 148.124 221.606C146.503 221.583 144.202 221.401 142.509 221.406C141.699 221.409 142.217 221.954 142.077 221.964C136.628 222.269 132.749 221.784 126.912 221.573C125.842 221.533 122.766 222.276 120.695 221.689C118.42 221.046 120.757 218.371 115.529 219.008C113.42 219.263 110.75 222.656 106.96 220.898C99.6094 221.334 92.8119 220.434 85.4411 221.056C85.1097 221.084 84.0615 222.031 83.2823 222.018C82.1254 221.997 81.4904 221.554 80.6644 221.525C77.2031 221.392 74.0356 221.771 70.6984 221.712C69.4314 221.69 69.8744 221.233 68.3633 221.207C66.853 221.182 65.846 221.785 63.7994 221.494C62.2538 221.272 60.7083 220.04 58.6567 219.896C58.5785 221.111 57.1695 221.086 54.665 221.407C54.1837 221.469 54.6999 221.892 54.4721 221.943C53.5454 222.161 52.6876 221.811 51.8076 222.048C51.5936 222.105 51.5835 222.52 51.4085 222.59C49.9203 223.201 47.4686 222.268 47.0475 222.105C45.4337 221.488 44.6795 222.028 43.4417 221.785C42.2059 221.542 44.0537 221.238 42.6101 221.09C39.6178 220.785 35.773 220.852 32.7339 220.833C31.5214 220.828 32.3487 221.382 32.1751 221.394C29.6677 221.535 27.1321 220.946 25.7418 222.049C24.0033 219.196 24.2298 222.326 20.6457 221.755C20.3634 221.708 20.0042 220.359 21.0881 220.161C22.172 219.963 23.8155 220.385 25.3193 220.076C25.6755 220.004 27.7154 218.74 27.9938 218.663C30.174 218.065 30.483 220.081 30.5984 220.191C31.9064 221.386 34.3993 220.025 35.0558 219.93C38.059 219.499 40.6105 219.783 43.1224 219.475C44.7652 219.276 44.9259 217.956 46.2159 217.996C50.5043 218.13 52.0011 219.972 56.0422 218.374C56.9087 218.034 56.0476 216.591 59.1524 217.725C59.3475 217.797 61.6526 218.835 62.9844 218.178C63.1517 218.096 63.1464 217.675 63.367 217.64C64.8454 217.411 65.8313 217.746 67.4418 217.586C69.0522 217.425 70.9886 217.186 72.8273 217.329C73.9354 217.414 75.3572 218.198 75.8876 218.39C77.3854 218.942 78.9913 218.036 79.9193 218.705C80.8549 219.378 79.0256 220.4 81.4793 220.834C81.5702 219.741 81.7789 218.62 81.9251 217.521C87.3024 217.559 92.5932 217.913 97.9884 217.864C98.6573 217.857 97.9732 217.27 98.6902 217.247C101.716 217.154 104.358 217.572 107.495 217.406C109.924 217.274 112.587 216.652 115.126 216.496C116.677 217.746 120.445 217.322 123.183 217.436C124.142 217.475 124.078 217.809 124.759 217.918C127.332 218.321 126.127 217.216 126.832 217.042C129.858 216.3 130.117 218.801 133.684 218.739C133.873 218.737 136.184 217.404 136.502 217.321C138.524 216.779 136.836 217.785 138.102 217.883C140.412 218.063 142.017 218.382 144.728 217.991C145.518 217.876 147.414 217.045 148.949 217.687C149.151 217.772 149.039 218.212 149.202 218.238C152.144 218.668 152.221 217.284 153.902 216.815C155.584 216.346 158.18 217.302 158.709 217.577C160.091 218.29 157.649 217.882 157.575 217.952C156.695 218.784 158.589 218.641 160.036 218.711C160.246 220.069 162.269 219.987 161.536 218.778C161.453 218.646 160.327 218.773 160.036 218.711C161.306 217.379 163.531 217.208 165.987 218.453C167.137 219.036 166.05 219.717 169.543 219.468C171.128 219.356 170.516 218.421 171.915 218.166C175.111 217.584 179.264 218.456 182.559 218.319C183.755 218.269 182.59 217.757 183.408 217.706C185.577 217.567 187.49 217.951 189.668 217.754C189.865 217.736 189.383 217.2 190.06 217.193C195.196 217.131 199.668 217.474 205.029 217.483C207.62 217.488 212.252 217.192 214.935 217.252C217.931 217.316 221.37 217.662 224.5 217.849L220.93 221.419C221.034 219.688 221.089 218.052 221.022 216.637C220.901 214.045 220.365 214.614 220 213.503C219.292 211.361 220.56 207.568 220.756 207.057C220.763 207.041 220.889 209.271 221.164 208.081C221.737 207.39 220.759 207.082 220.756 207.057C220.883 206.721 221.005 202.266 220.902 201.382C220.846 200.901 220.339 201.17 220.319 200.92C219.865 194.963 219.736 188.995 219.973 182.954C219.983 182.847 220.551 183.007 220.568 182.757C220.821 179.26 220.126 177.02 219.714 174.135C219.301 171.251 219.439 168.964 220.414 167.256C220.292 165.08 220.722 161.958 220.984 160.161C221.245 158.364 220.14 158.114 220.118 157.955C219.419 153.025 220.052 150.174 220.15 145.059C220.199 142.627 220.038 137.803 219.918 135.169C219.82 133.088 220.079 131.835 219.914 129.917C219.891 129.658 219.399 129.92 219.38 129.841C218.792 127.7 219.995 128.729 220.21 128.287C220.991 126.685 221.407 125.695 221.04 122.955C220.955 122.323 219.223 120.481 219.122 119.329C218.993 117.831 219.614 118.396 219.464 116.828C219.451 116.693 219.068 116.721 219.085 115.753C219.159 111.259 219.381 106.359 219.343 101.689C219.339 101.051 218.732 101.869 218.716 100.947C218.644 96.6222 218.667 91.8817 218.951 87.6682C219.023 86.6311 219.448 87.2812 219.575 87.0561C220.339 85.6739 219.229 83.7138 219.207 83.3904C218.674 75.6757 219.679 69.7714 219.2 61.9083C219.172 61.4803 217.982 58.1857 219.003 56.7158C219.071 56.6152 220.115 55.1609 219.401 53.875C219.356 53.7951 218.819 54.7013 218.873 53.1199C218.928 51.5385 218.569 48.9934 219.16 46.8197C219.346 46.1315 220.388 44.5049 219.557 42.4521C219.499 42.3183 217.621 39.1492 218.917 38.018C219.13 37.8346 220.502 38.0265 219.799 35.5764C219.662 35.1083 219.356 35.9581 219.165 34.7248C218.871 32.8353 219.238 30.3316 218.627 28.0088C218.519 27.6037 217.589 25.8793 218.295 24.4961C218.406 24.2794 218.863 24.691 218.915 23.9605C219.16 20.4868 218.854 16.8496 219.171 13.3226C219.282 12.0734 220.022 12.7121 220.221 11.4099C220.419 10.1074 220.61 7.48365 220.271 6.12091C219.933 4.75786 218.754 6.24685 218.659 4.20489C218.647 3.94292 218.636 3.68101 218.626 3.41918L224.5 9.29348C215.89 9.62964 207.353 8.97502 198.751 8.87679C197.436 8.86167 198.526 9.28375 196.589 9.29176C189.446 9.32317 177.113 9.71891 170.915 8.82204C165.949 8.1037 172.199 7.55681 168.404 7.26449C166.573 7.12504 164.591 8.4964 164.149 8.53957C159.831 8.97813 156.83 8.37065 152.943 8.55703C152.14 8.5957 152.927 9.15153 152.244 9.1783C149.911 9.27469 147.458 9.0266 145.229 9.07198C144.228 9.09362 144.413 9.51813 143.492 9.48537C141.29 9.41186 139.342 9.23341 137.195 8.83553C137 8.79927 138.319 8.27119 136.69 8.25155C134.053 8.22126 130.779 7.82875 127.745 8.23409C126.845 8.35603 126.809 9.32625 124.874 8.65621C124.468 8.51627 124.986 7.35124 122.732 8.35787C122.353 8.52515 118.566 9.88292 116.708 9.00771C116.218 8.77737 114.966 7.82402 113.884 7.97384C113.737 7.99775 114.325 8.51889 113.428 8.56972C110.266 8.73981 106.953 8.68421 103.705 8.84743C102.838 8.89205 104.129 9.43133 102.837 9.48061C99.2818 9.61692 94.8435 9.47961 91.3672 9.31081C90.0856 9.24756 90.9715 8.80083 90.8782 8.75222C89.3786 7.9615 88.4919 9.02879 87.9942 9.09103C84.8987 9.46367 82.5415 8.96232 79.6882 9.09499C78.9007 9.13025 79.4591 9.63915 79.3023 9.68453C77.6767 10.1279 78.8876 9.21398 77.8586 9.11324C74.976 8.82799 71.7625 8.86889 68.8473 8.93392C67.7765 8.95856 68.98 9.54864 68.0191 9.56392C62.3314 9.66561 56.4187 9.60914 50.868 9.28384C49.8229 9.22151 50.4804 8.76714 50.2626 8.66335C48.7613 7.93727 46.561 8.92766 46.0547 9.022C43.7527 9.45276 42.8585 9.05094 40.8256 9.12594C30.8944 9.49935 18.6322 9.23322 9.2578 9.06881C8.32325 9.05262 7.40471 9.03514 6.49999 9.01672L12.0975 3.41919C11.8751 14.3403 11.5143 23.2475 11.618 34.0054C11.6246 34.7458 12.229 33.9993 12.2424 34.6375C12.3882 42.8775 12.152 50.9898 12.3266 59.2463C12.3398 59.9239 12.9128 58.9472 12.9534 60.0347C13.0406 62.2653 13.0094 65.0909 12.8264 67.3462C12.7383 68.4462 12.2466 66.9707 12.1679 68.078C11.9835 70.6562 11.9427 73.4198 12.0346 76.0681C12.0749 77.1951 12.661 75.4947 12.6677 76.9595C12.7259 86.9378 12.8268 96.7374 12.0679 106.821C12.0158 107.512 10.8246 108.119 11.0531 109.588C11.3836 109.699 11.7725 109.693 12.1258 109.741C12.3161 124.267 11.9032 138.645 11.8394 153.211C11.8368 153.825 12.4679 152.764 12.4662 153.953C12.4569 160.835 12.6317 167.517 12.0044 174.557C11.9431 175.255 10.8328 174.897 11.0007 176.955C11.0313 177.318 11.1794 180.418 11.4204 181.22C11.4568 181.328 11.975 180.763 11.9901 181.762C12.0688 187.567 11.9505 193.65 11.6339 199.445C11.5818 200.38 11.0299 199.384 10.988 200.05C10.695 204.776 11.1146 209.915 10.6135 214.431C10.2761 217.453 9.32213 216.334 8.38309 217.94C8.25061 218.167 8.22962 220.039 7.68327 220.135C6.30942 220.384 4.80507 219.477 3.34069 219.849C3.02527 219.928 3.365 222.434 2.60278 220.95C2.55177 220.847 2.29879 219.03 2.04022 218.582C1.86145 218.27 1.30581 218.832 1.07696 218.196C0.848333 217.56 1.3141 216.862 1.04523 215.808C0.773027 214.754 0.140928 215.217 0.0661034 213.113ZM222.153 152.071C222.684 150.407 220.739 150.162 221.205 151.961C221.229 152.048 222.127 152.157 222.153 152.071ZM92.563 219.379C94.7379 220.236 96.2262 218.976 94.6919 218.313C93.1578 217.652 91.9004 219.119 92.563 219.379ZM70.0098 220.005C72.5518 220.681 72.9519 217.924 70.2294 218.482C70.0711 218.513 69.8612 219.966 70.0098 220.005ZM8.1157 210.492C8.08988 210.515 8.06472 211.86 8.09031 211.893C8.70776 212.609 8.75764 209.919 8.1157 210.492ZM47.6297 220.687C48.4232 221.06 50.7079 220.629 49.722 220.165C48.9283 219.792 46.6414 220.223 47.6297 220.687ZM224.228 65.288C224.257 65.2617 224.283 64.2973 224.119 64.3167C223.591 64.3822 223.74 65.7244 224.228 65.288ZM9.59201 220.718C15.2119 220.822 18.6193 223.099 12.4993 222.842C11.391 222.796 14.8879 222.116 13.4773 221.911C10.8962 221.537 9.18229 222.967 6.54834 222.201C6.07153 222.06 9.27145 220.707 9.60199 220.715C9.59868 220.716 9.59536 220.717 9.59201 220.718ZM224.488 151.113C224.514 151.08 224.538 149.745 224.512 149.713C223.895 148.99 223.846 151.679 224.488 151.113ZM225.43 9.00825C225.484 8.93455 225.536 5.83608 225.485 5.73505C224.476 4.11866 224.369 10.3829 225.43 9.00825ZM204.886 222.83C203.429 223.451 201.687 223.524 200.525 222.744C201.973 222.785 203.431 222.792 204.886 222.83Z" fill="white"/>
</svg>
